# xmcd CD database file
#
# Track frame offsets:
#	150
#	9852
#	22452
#	32847
#	46080
#	57592
#	68072
#	80362
#	90875
#	103280
#	115927
#	129285
#	138922
#	151455
#	161017
#	174100
#	188027
#	201597
#	215545
#
# Disc length: 3052 seconds
#
# Revision: 0
# Processed by: cddbd v1.5.1PL2 Copyright (c) Steve Scherf et al.
# Submitted via: CDex 1.51
#
DISCID=fe0bea13
DTITLE=Wilf Carter - Montana Slim
DYEAR=1900
DGENRE=Country
TTITLE0=IT MAKES NO DIFFERENCE NOW
TTITLE1=WHEN IT`S SPRINGTIME IN THE ROCKIES
TTITLE2=RATTLIN' CANNONBALL
TTITLE3=ROUNDUP TIME IN HEAVEN
TTITLE4=THE CATTLE CALL
TTITLE5=THERE'S A BLUEBIRD ON MY WINDOWSILL
TTITLE6=THE BLUE CANADIAN ROCKIES
TTITLE7=YOU ARE MY SUNSHINE
TTITLE8=ROCKIN' ALONE IN MY OLD ROCKIN' CHAIR
TTITLE9=A BOUQUET OF MEMORIES
TTITLE10=I`M THINKING TONIGHT OF MY BLUE EYES
TTITLE11=BORN TO LOSE
TTITLE12=YOU`RE NOBODY`S DARLIN BUT MINE
TTITLE13=NO LETTER TODAY
TTITLE14=IT`S ALL OVER NOW (I WON'T WORRY)
TTITLE15=THER`S A LOVE KNOT IN MY LARIAT
TTITLE16=OLD SHEP
TTITLE17=RED RIVER VALLEY BLUES
TTITLE18=ALMOST PRESUADED
EXTD=
EXTT0=
EXTT1=
EXTT2=
EXTT3=
EXTT4=
EXTT5=
EXTT6=
EXTT7=
EXTT8=
EXTT9=
EXTT10=
EXTT11=
EXTT12=
EXTT13=
EXTT14=
EXTT15=
EXTT16=
EXTT17=
EXTT18=
PLAYORDER=
